<svg width="45" height="50" viewBox="0 0 45 50" fill="none" xmlns="http://www.w3.org/2000/svg">
<g filter="url(#filter0_d_129_36)">
<path d="M21.5221 0.236685C22.0681 -0.0788947 22.7409 -0.0788953 23.2869 0.236685L39.9266 9.85336C40.4726 10.1689 40.809 10.7522 40.809 11.3833V30.6167C40.809 31.2478 40.4726 31.8311 39.9266 32.1466L23.2869 41.7633C22.7409 42.0789 22.0681 42.0789 21.5221 41.7633L4.88242 32.1466C4.33638 31.8311 4 31.2478 4 30.6167V11.3833C4 10.7522 4.33638 10.1689 4.88242 9.85336L21.5221 0.236685Z" fill="url(#paint0_linear_129_36)"/>
<path d="M21.4853 3.03387C22.0313 2.71829 22.7041 2.71829 23.2501 3.03387L37.5017 11.2704C38.0477 11.5859 38.3841 12.1692 38.3841 12.8003V29.2733C38.3841 29.9045 38.0477 30.4877 37.5017 30.8033L23.2501 39.0397C22.7041 39.3553 22.0313 39.3553 21.4853 39.0397L7.23378 30.8033C6.68774 30.4877 6.35136 29.9045 6.35136 29.2733V12.8003C6.35136 12.1692 6.68774 11.5859 7.23378 11.2704L21.4853 3.03387Z" fill="black"/>
<path d="M10.1976 13.9529V28.3485L21.3828 34.7465C21.3828 34.7465 21.3825 26.0238 21.3818 22.5327L18.668 21.3294V21.2178L21.3818 19.5705C21.381 16.2279 21.3828 7.23492 21.3828 7.23492L10.1976 13.9529Z" fill="#FBFBFB"/>
<path d="M27.0372 22.3986V32.7776L32.5524 30.1829V22.3986H27.0372Z" fill="#FBFBFB"/>
<path d="M27.0372 9.22239V19.3806H32.5054L32.6994 12.0667L27.0372 9.22239Z" fill="#FBFBFB"/>
<path d="M17.6733 12.5615V19.3647C17.6733 19.5073 17.5911 19.6371 17.4621 19.6978L14.3626 21.157C14.1187 21.2718 13.8384 21.0937 13.8384 20.824V14.3714C13.8384 14.2405 13.9079 14.1194 14.0208 14.0535L17.1204 12.2436C17.3655 12.1004 17.6733 12.2774 17.6733 12.5615Z" fill="black"/>
<path d="M17.3761 32.1786V24.4993C17.3761 24.3626 17.3004 24.2371 17.1795 24.1735L14.08 22.5426C13.8351 22.4138 13.5412 22.5915 13.5412 22.8684V30.1557C13.5412 30.2801 13.604 30.3961 13.7081 30.464L16.8077 32.4869C17.0522 32.6465 17.3761 32.4708 17.3761 32.1786Z" fill="black"/>
</g>
<defs>
<filter id="filter0_d_129_36" x="0" y="0" width="44.8091" height="50" filterUnits="userSpaceOnUse" color-interpolation-filters="sRGB">
<feFlood flood-opacity="0" result="BackgroundImageFix"/>
<feColorMatrix in="SourceAlpha" type="matrix" values="0 0 0 0 0 0 0 0 0 0 0 0 0 0 0 0 0 0 127 0" result="hardAlpha"/>
<feOffset dy="4"/>
<feGaussianBlur stdDeviation="2"/>
<feComposite in2="hardAlpha" operator="out"/>
<feColorMatrix type="matrix" values="0 0 0 0 0 0 0 0 0 0 0 0 0 0 0 0 0 0 0.25 0"/>
<feBlend mode="normal" in2="BackgroundImageFix" result="effect1_dropShadow_129_36"/>
<feBlend mode="normal" in="SourceGraphic" in2="effect1_dropShadow_129_36" result="shape"/>
</filter>
<linearGradient id="paint0_linear_129_36" x1="22.4045" y1="0.74777" x2="22.4045" y2="68.311" gradientUnits="userSpaceOnUse">
<stop stop-color="#1FCEE5"/>
<stop offset="1" stop-color="#3C64EE"/>
</linearGradient>
</defs>
</svg>
