<svg width="182" height="207" viewBox="0 0 182 207" fill="none" xmlns="http://www.w3.org/2000/svg">
	<g filter="url(#filter0_d_6_1925)">
		<path d="M86.8362 1.11697C89.413 -0.372282 92.5878 -0.372285 95.1647 1.11697L173.689 46.4991C176.266 47.9884 177.853 50.7406 177.853 53.7191V144.483C177.853 147.462 176.266 150.214 173.689 151.703L95.1647 197.086C92.5878 198.575 89.413 198.575 86.8362 197.086L8.31194 151.703C5.7351 150.214 4.14769 147.462 4.14769 144.483V53.7191C4.14769 50.7406 5.73509 47.9884 8.31194 46.4991L86.8362 1.11697Z" fill="url(#paint0_linear_6_1925)" />
		<path d="M86.6627 14.3172C89.2395 12.8279 92.4143 12.8279 94.9912 14.3172L162.246 53.186C164.822 54.6753 166.41 57.4276 166.41 60.4061V138.144C166.41 141.122 164.822 143.875 162.246 145.364L94.9912 184.233C92.4143 185.722 89.2395 185.722 86.6627 184.233L19.4082 145.364C16.8314 143.875 15.244 141.122 15.244 138.144V60.4061C15.244 57.4276 16.8314 54.6753 19.4082 53.186L86.6627 14.3172Z" fill="black" />
		<path d="M33.395 65.8451V133.779L86.1791 163.972C86.1791 163.972 86.1774 122.809 86.1742 106.334L73.3677 100.656V100.129L86.1742 92.3553C86.1705 76.5811 86.1791 34.1424 86.1791 34.1424L33.395 65.8451Z" fill="#FBFBFB" />
		<path d="M112.863 105.701V154.681L138.889 142.436V105.701H112.863Z" fill="#FBFBFB" />
		<path d="M112.863 43.5215V91.459H138.668L139.583 56.944L112.863 43.5215Z" fill="#FBFBFB" />
		<path d="M68.6737 59.279V91.3842C68.6737 92.0571 68.2853 92.6695 67.677 92.9559L53.0498 99.8422C51.899 100.384 50.5763 99.5435 50.5763 98.2705V67.8202C50.5763 67.2024 50.904 66.6312 51.4371 66.3199L66.0643 57.7787C67.221 57.1033 68.6737 57.9385 68.6737 59.279Z" fill="black" />
		<path d="M67.2711 151.854V115.615C67.2711 114.97 66.9138 114.378 66.3433 114.077L51.7161 106.381C50.5607 105.773 49.1737 106.612 49.1737 107.918V142.308C49.1737 142.895 49.4699 143.442 49.9612 143.763L64.5884 153.309C65.7425 154.062 67.2711 153.233 67.2711 151.854Z" fill="black" />
	</g>
	<defs>
		<filter id="filter0_d_6_1925" x="0.14769" y="3.05176e-05" width="181.706" height="206.202" filterUnits="userSpaceOnUse" color-interpolation-filters="sRGB">
			<feFlood flood-opacity="0" result="BackgroundImageFix" />
			<feColorMatrix in="SourceAlpha" type="matrix" values="0 0 0 0 0 0 0 0 0 0 0 0 0 0 0 0 0 0 127 0" result="hardAlpha" />
			<feOffset dy="4" />
			<feGaussianBlur stdDeviation="2" />
			<feComposite in2="hardAlpha" operator="out" />
			<feColorMatrix type="matrix" values="0 0 0 0 0 0 0 0 0 0 0 0 0 0 0 0 0 0 0.25 0" />
			<feBlend mode="normal" in2="BackgroundImageFix" result="effect1_dropShadow_6_1925" />
			<feBlend mode="normal" in="SourceGraphic" in2="effect1_dropShadow_6_1925" result="shape" />
		</filter>
		<linearGradient id="paint0_linear_6_1925" x1="91.0005" y1="3.52884" x2="91.0005" y2="322.367" gradientUnits="userSpaceOnUse">
			<stop stop-color="#1FCEE5" />
			<stop offset="1" stop-color="#3C64EE" />
		</linearGradient>
	</defs>
</svg>
